<?xml version="1.0" encoding="utf-8"?>
<!-- Generator: Adobe Illustrator 27.3.1, SVG Export Plug-In . SVG Version: 6.00 Build 0)  -->
<svg version="1.2" baseProfile="tiny-ps" id="Layer_1" xmlns="http://www.w3.org/2000/svg" xmlns:xlink="http://www.w3.org/1999/xlink"
	 viewBox="0 0 1000 1000" xml:space="preserve">
	 <title>EaseMy Trip</title>
<circle fill="#FFFFFF" cx="500" cy="500" r="456.9"/>
<path fill="#515151" d="M267.7,631.7c2.3,0,4.1-0.3,5.5-0.9c2.2-1,3.5-2.8,4.1-5.3c0.6-2.6-0.1-4.3-2-5.2c-1.1-0.5-2.8-0.8-5.1-0.8
	h-9.5l-2.6,12.2H267.7z M265.6,649.9c3.3,0,5.8-1,7.6-2.8c1.1-1.2,1.9-2.7,2.3-4.4c0.6-2.9-0.3-4.8-2.6-5.9c-1.2-0.6-3-0.8-5.2-0.8
	H257l-3,13.9L265.6,649.9z M256.2,615h17c4.6,0,7.6,1.4,9,4.1c0.8,1.6,1,3.5,0.5,5.7c-0.5,2.5-1.7,4.5-3.4,6.1
	c-0.9,0.8-2.1,1.6-3.7,2.3c1.9,0.8,3.2,1.6,4,2.6c1.4,1.7,1.8,4.1,1.1,7.1c-0.5,2.5-1.8,4.8-3.9,6.9c-3,3.1-7.1,4.6-12.3,4.6h-16.7
	L256.2,615L256.2,615z M292.5,614.9h4.8l-3.1,14.7c1.5-1.5,2.7-2.5,3.8-3.1c1.8-1,3.8-1.5,6.2-1.5c4.2,0,6.7,1.5,7.6,4.4
	c0.5,1.6,0.4,3.8-0.2,6.6l-3.9,18.5h-5l3.8-18.2c0.5-2.1,0.5-3.7,0.2-4.7c-0.6-1.6-2-2.4-4.5-2.4c-2,0-4,0.7-5.9,2.1s-3.3,4-4.1,7.8
	l-3.2,15.3h-4.8L292.5,614.9z M324.3,651.4c1.7,0,3.4-0.4,5.2-1.2c3-1.3,4.8-3.5,5.4-6.4l0.8-3.9c-0.7,0.4-1.5,0.7-2.5,0.9
	c-1,0.2-1.9,0.4-2.9,0.5l-3,0.4c-1.8,0.2-3.2,0.6-4.2,1.1c-1.7,0.8-2.7,2.2-3.1,4c-0.3,1.4,0,2.5,0.8,3.3
	C321.7,651,322.9,651.4,324.3,651.4L324.3,651.4z M333.9,637.1c1.1-0.1,2-0.6,2.6-1.4c0.3-0.4,0.5-1,0.7-1.9c0.4-1.7,0-2.8-1-3.6
	c-1-0.8-2.6-1.1-4.8-1.1c-2.5,0-4.5,0.7-5.8,2c-0.8,0.8-1.4,1.9-1.9,3.4h-4.5c0.8-3.5,2.5-6,5-7.4c2.5-1.4,5.2-2.1,8.1-2.1
	c3.4,0,6,0.7,7.8,1.9s2.5,3.3,1.9,6l-3.5,16.6c-0.1,0.5-0.1,0.9,0,1.2c0.1,0.3,0.5,0.5,1.2,0.5c0.2,0,0.5,0,0.7,0
	c0.3,0,0.6-0.1,0.9-0.1l-0.8,3.6c-0.8,0.2-1.4,0.3-1.8,0.4c-0.4,0-0.9,0.1-1.6,0.1c-1.7,0-2.8-0.6-3.2-1.8c-0.3-0.6-0.4-1.5-0.3-2.7
	c-1.3,1.3-2.9,2.4-5,3.4s-4.2,1.4-6.4,1.4c-2.7,0-4.7-0.8-6-2.4c-1.4-1.6-1.8-3.7-1.2-6.1c0.6-2.7,1.9-4.7,3.8-6.2
	c2-1.5,4.4-2.4,7.1-2.7L333.9,637.1L333.9,637.1L333.9,637.1z M351.6,625.7h4.6l-1,5c0.6-1,1.7-2.1,3.5-3.5c1.8-1.4,3.6-2.1,5.5-2.1
	c0.1,0,0.2,0,0.5,0s0.6,0,1.1,0.1l-1.1,5.1c-0.3,0-0.5-0.1-0.8-0.1c-0.2,0-0.5,0-0.8,0c-2.4,0-4.5,0.8-6.1,2.4
	c-1.6,1.6-2.7,3.4-3.1,5.4l-3.5,16.6h-4.8L351.6,625.7L351.6,625.7z M373.3,651.4c1.7,0,3.4-0.4,5.2-1.2c3-1.3,4.8-3.5,5.4-6.4
	l0.8-3.9c-0.7,0.4-1.5,0.7-2.5,0.9c-1,0.2-1.9,0.4-2.9,0.5l-3,0.4c-1.8,0.2-3.2,0.6-4.2,1.1c-1.7,0.8-2.7,2.2-3.1,4
	c-0.3,1.4,0,2.5,0.8,3.3C370.7,651,371.9,651.4,373.3,651.4L373.3,651.4z M382.9,637.1c1.1-0.1,2-0.6,2.6-1.4c0.3-0.4,0.5-1,0.7-1.9
	c0.4-1.7,0-2.8-1-3.6c-1-0.8-2.6-1.1-4.8-1.1c-2.5,0-4.5,0.7-5.8,2c-0.7,0.8-1.4,1.9-1.9,3.4h-4.5c0.8-3.5,2.5-6,5-7.4
	c2.5-1.4,5.2-2.1,8.1-2.1c3.4,0,6,0.7,7.8,1.9s2.5,3.3,1.9,6l-3.5,16.6c-0.1,0.5-0.1,0.9,0,1.2c0.1,0.3,0.5,0.5,1.2,0.5
	c0.2,0,0.5,0,0.7,0c0.3,0,0.6-0.1,0.9-0.1l-0.8,3.6c-0.8,0.2-1.4,0.3-1.8,0.4c-0.4,0-0.9,0.1-1.6,0.1c-1.7,0-2.8-0.6-3.2-1.8
	c-0.3-0.6-0.4-1.5-0.3-2.7c-1.3,1.3-2.9,2.4-5,3.4s-4.2,1.4-6.4,1.4c-2.7,0-4.7-0.8-6-2.4c-1.3-1.6-1.8-3.7-1.2-6.1
	c0.6-2.7,1.9-4.7,3.8-6.2c2-1.5,4.4-2.4,7.1-2.7L382.9,637.1L382.9,637.1L382.9,637.1z M403.2,617.7h4.9l-1.7,8h4.6l-0.8,4h-4.6
	l-4,18.8c-0.2,1,0,1.7,0.6,2c0.3,0.2,1,0.3,1.8,0.3h0.8c0.3,0,0.6,0,1-0.1l-0.8,3.8c-0.6,0.2-1.2,0.3-1.8,0.3
	c-0.6,0.1-1.3,0.1-2,0.1c-2.3,0-3.7-0.6-4.2-1.7c-0.6-1.2-0.6-2.7-0.2-4.5l4.1-19.1h-3.9l0.8-4h3.9L403.2,617.7L403.2,617.7z
	 M433.3,615h4.6l-4.9,22.9l15-12.2h6.2L441,636.5l7.8,18h-6.2l-5.9-14.5l-4.8,3.7l-2.3,10.8h-4.6L433.3,615L433.3,615z M462.1,651.4
	c1.7,0,3.4-0.4,5.2-1.2c3-1.3,4.8-3.5,5.4-6.4l0.8-3.9c-0.7,0.4-1.5,0.7-2.5,0.9c-1,0.2-1.9,0.4-2.9,0.5l-3,0.4
	c-1.8,0.2-3.2,0.6-4.2,1.1c-1.7,0.8-2.7,2.2-3.1,4c-0.3,1.4,0,2.5,0.8,3.3C459.6,651,460.7,651.4,462.1,651.4L462.1,651.4z
	 M471.7,637.1c1.1-0.1,2-0.6,2.6-1.4c0.3-0.4,0.5-1,0.7-1.9c0.4-1.7,0-2.8-1-3.6c-1-0.8-2.6-1.1-4.8-1.1c-2.5,0-4.5,0.7-5.8,2
	c-0.8,0.8-1.4,1.9-1.9,3.4H457c0.8-3.5,2.5-6,5-7.4c2.5-1.4,5.2-2.1,8.1-2.1c3.4,0,6,0.7,7.8,1.9s2.5,3.3,1.9,6l-3.5,16.6
	c-0.1,0.5-0.1,0.9,0,1.2c0.1,0.3,0.5,0.5,1.2,0.5c0.2,0,0.5,0,0.7,0c0.3,0,0.6-0.1,0.9-0.1l-0.8,3.6c-0.8,0.2-1.4,0.3-1.8,0.4
	c-0.4,0-0.9,0.1-1.6,0.1c-1.7,0-2.8-0.6-3.2-1.8c-0.3-0.6-0.4-1.5-0.3-2.7c-1.3,1.3-2.9,2.4-5,3.4s-4.2,1.4-6.4,1.4
	c-2.7,0-4.7-0.8-6-2.4c-1.3-1.6-1.8-3.7-1.2-6.1c0.6-2.7,1.9-4.7,3.8-6.2c2-1.5,4.4-2.4,7.1-2.7L471.7,637.1L471.7,637.1
	L471.7,637.1z M535.4,615l-1,4.7h-13.3l-7.4,34.8h-5.4l7.4-34.8h-13.3l1-4.7H535.4L535.4,615z M535.5,625.7h4.6l-1,5
	c0.6-1,1.7-2.1,3.5-3.5c1.8-1.4,3.6-2.1,5.5-2.1c0.1,0,0.2,0,0.5,0s0.6,0,1.1,0.1l-1.1,5.1c-0.3,0-0.5-0.1-0.8-0.1
	c-0.2,0-0.5,0-0.8,0c-2.4,0-4.5,0.8-6.1,2.4c-1.6,1.6-2.7,3.4-3.1,5.4l-3.5,16.6h-4.8L535.5,625.7L535.5,625.7z M557.1,651.4
	c1.7,0,3.4-0.4,5.2-1.2c3-1.3,4.8-3.5,5.4-6.4l0.8-3.9c-0.7,0.4-1.5,0.7-2.5,0.9c-1,0.2-1.9,0.4-2.8,0.5l-3,0.4
	c-1.8,0.2-3.2,0.6-4.2,1.1c-1.7,0.8-2.7,2.2-3.1,4c-0.3,1.4,0,2.5,0.8,3.3C554.6,651,555.7,651.4,557.1,651.4L557.1,651.4z
	 M566.7,637.1c1.2-0.1,2-0.6,2.5-1.4c0.3-0.4,0.5-1,0.7-1.9c0.4-1.7,0-2.8-1-3.6c-1-0.8-2.6-1.1-4.8-1.1c-2.5,0-4.5,0.7-5.8,2
	c-0.8,0.8-1.4,1.9-1.9,3.4h-4.5c0.8-3.5,2.5-6,5-7.4c2.5-1.4,5.2-2.1,8.2-2.1c3.4,0,6,0.7,7.8,1.9c1.8,1.3,2.5,3.3,1.9,6l-3.5,16.6
	c-0.1,0.5-0.1,0.9,0,1.2c0.1,0.3,0.5,0.5,1.2,0.5c0.2,0,0.5,0,0.7,0c0.3,0,0.6-0.1,0.9-0.1l-0.8,3.6c-0.8,0.2-1.4,0.3-1.8,0.4
	c-0.4,0-0.9,0.1-1.6,0.1c-1.7,0-2.8-0.6-3.3-1.8c-0.3-0.6-0.4-1.5-0.3-2.7c-1.3,1.3-2.9,2.4-5,3.4c-2,1-4.2,1.4-6.4,1.4
	c-2.7,0-4.7-0.8-6-2.4c-1.3-1.6-1.8-3.7-1.2-6.1c0.6-2.7,1.8-4.7,3.8-6.2c2-1.5,4.4-2.4,7.2-2.7L566.7,637.1L566.7,637.1z
	 M586.7,625.7l2.7,23.5l13-23.5h5.3l-17,28.8h-5.2l-4.5-28.8H586.7L586.7,625.7z M633.2,630.2c0.7,1.5,1,3.2,0.9,5.1
	c0,1.3-0.3,3.4-0.9,6.3H612c-0.5,2.9-0.3,5.3,0.6,7c0.9,1.8,2.8,2.6,5.5,2.6c2.5,0,4.7-0.8,6.6-2.5c1.1-0.9,1.9-2.1,2.6-3.4h4.8
	c-0.4,1.1-1,2.2-2,3.5c-1,1.3-2,2.3-3,3.2c-1.8,1.4-3.8,2.4-6.1,2.9c-1.2,0.3-2.6,0.4-4.1,0.4c-3.6,0-6.3-1.3-8.3-3.9
	c-1.9-2.6-2.4-6.3-1.4-11c1-4.6,3-8.4,6.2-11.3c3.1-2.9,6.7-4.3,10.8-4.3c2,0,3.9,0.5,5.7,1.5C631.4,627.4,632.5,628.7,633.2,630.2
	L633.2,630.2z M629,637.8c0.2-2.1,0.2-3.8-0.3-5c-0.8-2.3-2.8-3.5-5.9-3.5c-2.2,0-4.3,0.8-6.1,2.4c-1.8,1.6-3.1,3.6-3.7,6.1
	L629,637.8L629,637.8z M644.9,615h4.8l-8.4,39.5h-4.8L644.9,615z M685.3,638.3l-2.3-17.5l-10.1,17.5H685.3L685.3,638.3z M681.5,615
	h6l6,39.5h-5.9l-1.5-11.8h-15.6l-6.8,11.8h-5.5L681.5,615L681.5,615z M720.8,639.9c0.5-2.3,0.6-4.3,0.2-5.9
	c-0.6-3.2-2.5-4.8-5.9-4.8s-6,1.7-8,5c-1,1.8-1.9,4.1-2.5,6.8c-0.5,2.2-0.5,4.1-0.2,5.7c0.6,3,2.6,4.5,5.9,4.5
	c2.3,0,4.3-0.9,6.2-2.8C718.7,646.6,720,643.7,720.8,639.9L720.8,639.9z M703.4,625.9h4.7l-0.8,3.8c1.2-1.3,2.5-2.3,3.8-3
	c1.9-1.1,3.9-1.6,6.1-1.6c3.3,0,5.8,1.3,7.5,3.8c1.7,2.5,2.1,6.1,1.1,10.7c-1.3,6.3-3.9,10.8-7.8,13.4c-2.4,1.7-5,2.6-7.8,2.6
	c-2.2,0-3.9-0.5-5.2-1.4c-0.8-0.5-1.5-1.5-2.3-2.8l-3.1,14.7h-4.8L703.4,625.9L703.4,625.9z M751.5,639.9c0.5-2.3,0.6-4.3,0.2-5.9
	c-0.6-3.2-2.5-4.8-5.9-4.8s-6,1.7-8,5c-1,1.8-1.9,4.1-2.5,6.8c-0.5,2.2-0.5,4.1-0.2,5.7c0.6,3,2.6,4.5,5.9,4.5
	c2.3,0,4.3-0.9,6.2-2.8C749.3,646.6,750.7,643.7,751.5,639.9L751.5,639.9z M734.1,625.9h4.7l-0.8,3.8c1.2-1.3,2.5-2.3,3.8-3
	c1.9-1.1,3.9-1.6,6.1-1.6c3.3,0,5.8,1.3,7.5,3.8c1.7,2.5,2.1,6.1,1.1,10.7c-1.3,6.3-3.9,10.8-7.8,13.4c-2.4,1.7-5,2.6-7.8,2.6
	c-2.2,0-3.9-0.5-5.2-1.4c-0.8-0.5-1.5-1.5-2.3-2.8l-3.1,14.7h-4.8L734.1,625.9L734.1,625.9z"/>
<path fill="#005B9B" d="M133.7,534.9v-26.8h31.6V493h-31.6v-23.4h33.5v-15.5h-52v96.5h54V535L133.7,534.9L133.7,534.9z M186.3,497.1
	c4.5-2.8,10.9-4.8,17.2-4.8c10.2,0,12.6,5.2,12.6,12.2c-22.4,0-38.2,8.3-38.2,26.3c0,11.4,8.1,21,21,21c7.8,0,14.6-3.2,18.6-8.6h0.4
	l1.1,7.2h16.7c-0.8-4.3-1-10.5-1-16.5v-25.5c0-15.3-5.8-29.2-27.6-29.2c-11,0-19.6,3.2-24.4,5.8L186.3,497.1L186.3,497.1z
	 M216.6,526.5c0,8.8-7.2,12.1-11.7,12.1s-8.8-2.9-8.8-9.6c0-10.2,10.5-12.6,20.4-12.6v10.1L216.6,526.5L216.6,526.5z M247,547.1
	c4.7,2.8,12.1,4.7,19.7,4.7c17.4,0,27.5-8.7,27.5-22.1c0-9.7-5.4-16.4-17.3-21.3c-8.1-3.4-10.7-5.3-10.7-9.3c0-3.8,3-6.6,8.7-6.6
	c5.2,0,10.2,2,13.3,3.7l3.5-13.1c-4-2.1-10.2-3.9-17.3-3.9c-15.5,0-25.6,9.6-25.6,22.1c0,7.6,4.8,15,17.8,20.3
	c7.7,3.3,10.1,5.4,10.1,9.7s-3.1,6.9-9.7,6.9c-5.7,0-12.8-2.5-16.3-4.7L247,547.1L247,547.1z M362.8,521c0.4-2,0.5-4.7,0.5-7.3
	c0-22.6-11.1-34.6-28-34.6c-20.5,0-32.1,17.3-32.1,37.4c0,21.7,12.4,35.3,34,35.3c8.7,0,16.8-1.5,22.7-4l-2.6-12.9
	c-4.8,1.6-10.2,2.9-17,2.9c-10.1,0-18.6-4.8-19.1-16.7H363V521L362.8,521L362.8,521z M321,508.2c0.5-6.8,4.3-16.2,13.3-16.2
	s12.1,8.8,12,16.2H321L321,508.2z M442.4,453.9l-11,36.2c-3.3,11.6-6.1,23.2-8.5,34.1h-0.4c-2.1-11.1-4.9-22.4-8.1-34.1L404,453.9
	h-23.1l-6.4,96.5h17.2l1.9-37.1c0.6-12,1.3-26.1,1.5-38.4h0.4c2.3,11.9,5.3,24.9,8.5,35.7l10.7,38.4h14.1l11.9-39
	c3.3-10.9,6.7-23.6,9.6-35.1h0.4c-0.1,9.7,0.5,25.2,1,38l1.8,37.5H471l-5.4-96.5L442.4,453.9L442.4,453.9z M516,517.1
	c-1,4.3-2.1,9.3-2.9,13.1h-0.4c-0.9-3.9-2.1-8.7-3.3-13.1l-10.4-36.5h-20.3l23.6,64.1c0.5,1.4,0.8,2.4,0.8,3.2c0,1.4-3.2,8.5-9.3,13
	c-3.3,2.3-6.7,4.3-9.9,5l4.7,15.7c4.2-0.8,11.4-3.3,18-9.7c7.8-7.8,13.9-20.2,21.6-42.8l15.8-48.6h-19.3L516,517.1L516,517.1z
	 M546.3,453.9v16h23.9v80.4h18.6V470h24v-16L546.3,453.9z M638.6,492.7l-0.8-12.2h-15.9c0.2,6.2,0.5,13.3,0.5,21.8v48.1H641v-36.1
	c0-12,6.3-17.5,14.8-17.5c1.9,0,3.4,0.1,4.8,0.4v-17.7c-1.3-0.2-2.4-0.4-4.2-0.4c-6.4,0-14.1,4.7-17.3,13.8h-0.5L638.6,492.7
	L638.6,492.7z M690.1,461.4c0-5.7-4-10-10.1-10c-5.7,0-10,4.2-10,10s4,10,10,10C685.9,471.5,690.1,467.4,690.1,461.4 M670.9,550.4
	h18.6v-69.9h-18.6V550.4z M721.9,480.6h-16.2c0.2,6.3,0.5,13.9,0.5,22.9v75h18.7v-34.8h0.2c3,4.7,9,8.1,16.5,8.1
	c14.3,0,28.8-11.4,28.8-37c0-21.5-11.4-35.7-26.6-35.7c-9.1,0-16.2,3.9-20.7,11.1h-0.2L721.9,480.6L721.9,480.6z M724.9,509.2
	c0-8.3,5.6-15.1,12.9-15.1c9.2,0,14,9,14,21.5c0,12.5-4.9,21.8-14.4,21.8c-6.2,0-12.5-4.9-12.5-15V509.2L724.9,509.2z"/>
<path fill-rule="evenodd" fill="#005B9B" d="M235.3,489.7c51.1-103.3,191-24.2,268.5-93.2C426.6,477,273.7,409,235.3,489.7"/>
<path fill-rule="evenodd" fill="#005B9B" d="M467.9,398.3l9.2,9.9c4.5,4.9,3.3,5-1.9,8.1L445.8,430c-3.5,2.1-5.8,0.4-3.3-3.7
	l18.7-29.8C463,392.8,465,394.9,467.9,398.3"/>
<path fill="#252220" d="M758.4,579.5c1.2,0,1.9-0.5,2.1-1.2c0.5-0.7,0.5-1.7,0.5-2.6s-0.5-1.4-1-1.9c-0.7-0.5-1.4-1-2.1-1
	c-1,0-1.7,0.5-1.9,1.2c-0.5,1-0.5,1.7-0.5,2.4c0,1,0.2,1.4,1,2.1C756.8,579.3,757.5,579.5,758.4,579.5L758.4,579.5z M783.6,579.7
	c2.1,0,4-0.5,6-1.2c1.9-0.7,3.8-1.7,5.5-2.8c1.7-1.2,3.1-2.6,4.5-4c1.4-1.7,2.6-3.1,3.3-5c0.2-0.2,0.2-0.5,0.5-1
	c0.2-0.5,0.2-0.7,0.2-1c0-0.7-0.5-1.2-1.2-1.2c-0.5,0-1,0.2-1.2,0.7c-0.5,0.5-0.7,1-1,1.2c-0.7,1.2-1.7,2.4-2.6,3.6
	s-2.1,2.1-3.3,3.1s-2.6,1.7-3.8,2.4c-1.4,0.7-2.8,1-4.5,1c-1.4,0-2.6-0.5-3.6-1.4c-0.7-0.7-1.2-1.7-1.4-2.6c-0.5-1-0.5-2.1-0.5-3.3
	s0.2-2.6,0.5-3.8c0.2-1.4,0.7-2.6,1.2-3.8c0.5-1.2,1-2.4,1.7-3.3s1.2-1.9,1.7-2.4c0.5-0.5,1.2-1,1.7-1.2c0.7-0.5,1.2-0.5,1.9-0.5
	c1,0,1.4,0.2,1.4,1c0.2,0.7,0.2,1.2,0.2,1.9c0,1.2-0.2,2.1-0.7,2.8c-0.5,0.7-0.7,1.4-0.7,1.9s0.2,0.7,0.7,0.7c0.7,0,1.2-0.2,1.9-0.7
	c0.7-0.7,1.2-1.4,1.4-2.6c0.2-1.2,0.5-1.9,0.5-2.8c0-1.9-0.5-3.3-1.7-4c-1-1-2.4-1.2-4-1.2c-1.4,0-2.8,0.5-4.3,1
	c-1.2,0.7-2.4,1.4-3.3,2.4s-1.7,1.7-2.1,2.8c-0.7,1.2-1.2,2.4-1.7,3.6c-0.5,1.2-1,2.6-1.2,3.8c-0.2,1.4-0.5,2.6-0.5,4
	c0,1.9,0.2,3.6,1,5.5c0.5,1.7,1.4,3.1,2.6,4.5c0.7,0.7,1.4,1.2,2.4,1.7C781.5,579.5,782.4,579.7,783.6,579.7L783.6,579.7z
	 M801,570.2c0,3.1,0.7,5.7,1.9,7.1c1.4,1.4,2.8,2.4,4.8,2.4c1.4,0,2.8-0.5,4.5-1.2c1.7-1,2.8-2.1,4.3-3.6c1.2-1.7,2.4-3.6,3.1-6
	c1-2.4,1.2-5,1.2-8.1c0-1.2-0.2-2.4-0.5-3.6c-0.2-1-0.6-2-1.2-2.8c-0.5-1-1.2-1.4-2.1-1.9c-1-0.5-1.9-0.7-2.8-0.7
	c-1.9,0-3.6,0.7-5.5,1.7c-1.7,1.2-3.1,2.6-4,4.5c-1.2,1.9-2.1,3.8-2.6,6C801.5,565.9,801,568.1,801,570.2L801,570.2z M814.3,555.9
	c1.2,0,2.1,0.7,2.6,1.7c0.7,1.2,1,2.6,1,4.3c0,2.1-0.2,4-0.7,6c-0.5,1.7-1.2,3.1-1.9,4.5c-1,1.2-1.7,2.1-2.6,2.8s-1.9,1-2.8,1
	s-1.9-0.5-2.6-1.4s-1-2.4-1-4.5c0-1.4,0.2-3.1,0.7-4.8c0.5-1.7,1.2-3.1,1.7-4.5c0.7-1.4,1.7-2.6,2.6-3.3
	C812.2,556.7,813.1,555.9,814.3,555.9L814.3,555.9z M846.9,577.8c0.5,0,0.7-0.2,1.2-0.5c0.5-0.2,0.7-0.5,1-1c0.5-0.7,1-1.4,1.4-2.8
	c0.7-1.2,1.4-2.6,2.4-4.3c1-1.7,1.9-3.1,2.8-4.8s2.1-3.1,3.1-4.5c1-1.4,1.9-2.4,2.6-3.3c1-1,1.4-1.4,2.1-1.4c0.5,0,0.7,0.2,0.7,0.5
	c0.2,0.2,0.2,0.7,0.5,1c0.2,0.5,0.2,0.7,0.2,1.2v1c0,2.1-0.2,4-0.5,6.2c-0.2,2.1-0.5,4-0.5,6.2c0,1,0,1.9,0.2,2.9
	c0.2,1.2,0.2,2.1,0.7,3.1c0.5,1,1,1.9,1.4,2.4c0.7,0.7,1.7,1,2.6,1c1.2,0,2.6-0.5,4-1.2s2.8-1.9,4.3-2.8c1.4-1.2,2.6-2.4,3.8-3.6
	s2.1-2.4,2.8-3.3c0.2-0.2,0.2-0.5,0.5-0.7c0.2-0.2,0.2-0.5,0.2-0.7c0-0.5-0.2-0.7-0.2-1c-0.2-0.5-0.5-0.5-1-0.5s-1,0.2-1.2,0.7
	c-0.5,0.5-0.7,1-1,1.2c-0.5,0.7-1.2,1.4-1.9,2.4l-2.8,2.8c-1,1-2.1,1.7-3.1,2.4c-1,0.7-1.9,1-2.6,1c-0.5,0-1-0.2-1.2-0.5
	c-0.2-0.5-0.5-0.7-0.7-1.2c-0.2-0.5-0.2-1-0.2-1.4v-1.2c0-2.6,0.2-5.5,0.5-7.8c0.5-2.6,0.5-5.2,0.5-7.8c0-0.7-0.2-1.4-0.2-1.9
	c-0.2-0.7-0.5-1.4-0.7-1.9c-0.5-0.7-1-1.2-1.4-1.4c-0.7-0.5-1.2-0.7-1.9-0.7c-1.2,0-2.1,0.5-3.1,1.2c-1.2,0.7-1.9,1.4-2.6,2.1
	c-1,1-1.7,1.9-2.4,3.1s-1.4,2.1-2.1,3.1c-1,1.4-1.9,2.6-2.9,4c-1,1.4-1.9,2.6-2.6,4c-0.2,0.2-0.2,0.5-0.5,0.7
	c-0.2,0.5-0.5,0.7-0.5,0.7c-0.2,0-0.2-0.2-0.5-0.7s-0.2-1-0.2-1.4s-0.2-1.2-0.2-1.7v-1.2c0-1.4,0-2.6,0.2-4c0-1.4,0.2-2.6,0.2-4
	c0-0.5,0-1.2-0.2-1.7c-0.2-0.7-0.2-1.4-0.5-1.9c-0.2-0.7-0.5-1.2-1-1.7c-0.5-0.5-1-0.7-1.7-0.7c-1,0-1.9,0.5-3.1,1.4
	s-2.1,2.1-3.3,3.3c-1.2,1.4-2.1,2.6-2.9,4c-1,1.4-1.7,2.4-2.1,3.1c0.2-1.4,0.5-2.6,1-4c0.5-1.4,0.7-2.6,1.2-3.8
	c0.2-0.5,0.5-1,0.7-1.7c0.2-0.7,0.7-1.4,1-1.9c0.2-0.7,0.5-1.4,0.7-1.9c0.2-0.7,0.2-1.2,0.2-1.7s-0.2-1-0.5-1.2
	c-0.2-0.5-0.7-0.5-1.2-0.5c-1,0-1.9,0.2-3.1,0.7c-1.2,0.5-1.9,1.2-2.4,2.1c-0.2,0.7-0.7,1.7-1,2.8c-0.5,1.4-1,3.1-1.2,5
	c-0.5,1.9-1,3.8-1.2,6c-0.5,2.1-1,4-1.2,6c-0.5,1.9-0.7,3.6-1,5.2c-0.2,1.7-0.5,2.6-0.5,3.3c0,0.5,0.2,0.7,0.5,1.2
	c0.2,0.5,0.7,0.5,1.2,0.5c0.7,0,1.2-0.2,1.7-0.7c0.5-0.5,0.7-1,1-1.4c0.2-0.7,0.7-1.4,1.4-2.6c0.7-1.2,1.4-2.6,2.4-4
	c1-1.7,1.9-3.1,2.8-4.8c1.1-1.5,2.1-3,3.1-4.5c1-1.4,1.9-2.4,2.6-3.3c1-1,1.4-1.4,1.9-1.4s0.7,0.2,0.7,0.7s0.2,0.7,0.2,1v5.2
	c0,1.2,0,2.4,0.2,3.8c0,1.4,0.2,2.6,0.2,4c0.2,1.4,0.2,2.6,0.5,3.6c0.2,1.2,0.5,2.1,0.7,2.8C846,577.3,846.4,577.8,846.9,577.8
	L846.9,577.8L846.9,577.8z"/>
<path fill-rule="evenodd" fill="#00A4D5" d="M416.1,334.2l181.4,15c8.8,0.5,7.5,2.3,3,6.3l-88.5,86.6c-4.9,5.4-6.1,3.9-12-2.5
	l-34.6-39.1c-4.5-4.8-5.3-5.8,2.5-8.6l86.1-27.6l-96.8,17.2c-7.2,1.5-6.3,2.5-11.5-4.7l-32.2-36.9
	C409.5,335.4,409.9,333.2,416.1,334.2L416.1,334.2z"/>
<path fill="#FF630B" d="M118.6,634h106.1v6.7H118.6V634z"/>
<path fill="#139E3A" d="M778.8,634h106.1v6.7H778.8V634z"/>
</svg>
